<?xml version="1.0" encoding="utf-8"?>
<!DOCTYPE svg PUBLIC "-//W3C//DTD SVG 1.1//EN" "http://www.w3.org/Graphics/SVG/1.1/DTD/svg11.dtd">
<svg version="1.1" id="Layer_1" xmlns="http://www.w3.org/2000/svg" xmlns:xlink="http://www.w3.org/1999/xlink" x="0px" y="0px"
	 viewBox="-778.2151 -502.3622 2398.3201 1600" enable-background="new -778.2151 -502.3622 2398.3201 1600" xml:space="preserve">
<g>
	<path fill="none" d="M770.5062,795.9323l-1.0676-3.517c-0.2198-0.6909-0.5338-1.0677-0.9735-1.6957
		c-0.2512-0.3768-0.5337-0.7222-0.8164-1.0677c-0.157-0.1884-0.6594-0.471-0.7222-0.628c-0.9735,0-1.1305,1.7271-1.1305,2.5749
		c0,1.8213,1.1619,3.0146,1.7899,4.5847C768.4338,798.2246,770.5062,798.7271,770.5062,795.9323z"/>
	<path fill="none" d="M773.3638,796.1835c0,1.1304-0.1885,2.1981-0.1885,3.3286c0,1.3188,1.0364,1.5386,1.2247,2.3551
		c1.5072,0,2.1039,0.4082,3.1715-1.2247c1.0049-1.5701-0.5966-3.517-0.9734-5.0556l-1.2875-4.302
		c-0.8164-1.7271-1.099-3.3914-2.7006-4.8672c-1.0676-1.0049-3.5797-1.5073-2.5121,0.7222
		C771.5111,790.1544,773.3638,792.7294,773.3638,796.1835z"/>
	<path fill="none" d="M782.376,801.773c0,0.9734,0.8793,3.674,2.1667,2.5435c1.6014-1.4131,0.0627-4.616,1.4758-6.0291
		c0.5967-0.5966,4.8672-1.3503,2.3552-3.2657l-1.6958-0.7222c-0.942-0.6594-2.1039-2.1353-3.4227-1.5387
		c-0.6908,0.314-1.0363,1.8213-0.8793,2.4179C782.9099,797.3454,782.376,799.5749,782.376,801.773z"/>
	<path fill="none" d="M797.8884,808.8697c0.7222,1.0991,0.9106,2.2609,1.0361,3.5798c0.0942,0.8793,0.7223,1.4131,1.4758,1.6957
		c1.2561,0.4711,0.8479-2.8261,0.7223-3.3286c-0.4082-1.5701-2.3551-3.674-2.3551-5.3068l-1.6957-3.4856
		c-2.4178-3.4542-3.5483-0.5338-2.6063,2.2924C794.9994,805.918,796.8521,807.3311,797.8884,808.8697z"/>
	<path fill="none" d="M767.1777,817.5679c0.7537-0.3768,1.2561-2.7947,0.4082-3.0145l-1.4758-2.0411
		c-0.377-0.628-1.8842-3.517-2.7634-2.1039c-0.6594,1.0676,0.6594,4.9614,1.4758,5.8407
		C765.4819,817.0027,766.0786,818.1332,767.1777,817.5679z"/>
	<path fill="none" d="M762.593,1097.6378c1.1025,0,2.3286-0.1783,3.7368-0.5601h-7.031
		C760.324,1097.4314,761.3899,1097.6378,762.593,1097.6378z"/>
	<path fill="none" d="M688.2971-502.3622c-0.9398,0-1.8184,0.1805-2.5847,0.5599h5.9329
		C690.4917-502.1494,689.3547-502.3622,688.2971-502.3622z"/>
	<path fill="#005BBB" d="M1615.4888,132.0734c-3.0144-0.7536-7.3164-4.5218-10.0798-6.3431
		c-4.2078-2.8261-4.1135-9.9857-8.447-11.7128c-0.2825-2.0097-2.512-3.4855-2.0095-6.3431c0-8.8866,9.2004-16.423,17.365-19.1235
		c0-9.6403-5.5581-8.6354-11.6814-6.5001c-3.0144,1.0363-3.0459-1.8213-5.3696-1.1619
		c-11.5559,3.2657-16.6428,10.0171-28.6697,10.9905c-4.8984,0.4082-8.6667-9.2635-15.0413-10.4881
		c-10.1113-1.9783-8.7922-12.8119-13.22-20.8192c-0.6909-1.2561,0.8479-5.3383,0.7222-5.3696v-0.2512
		c-0.1255-0.0315-0.3455-0.1885-0.4082-0.314c-6.7512,0-13.1885-4.1136-19.312-4.3335c-3.1714-1.9155-6.5942,1.6957-9.2632,2.9518
		c-3.8625,1.7899-5.9036,0.4082-9.5146-0.5024c-5.4954-1.3817-8.0703-5.7151-10.708-10.5823
		c-1.6958-3.0774-0.2197-7.4108-1.7271-9.8287c-1.0364-1.7584-6.2803-11.5243-8.5098-7.8817
		c-1.4446,2.3236-10.0801,12.9689-12.498,13.8166c-4.6157,1.6014-7.5361-2.0096-12.3721,1.1305
		c-5.9976,3.925-6.2803,3.0459-8.1016-3.5798c-1.7898-6.4373,1.3503-7.7247-7.5679-7.7247c-4.8042,0-10.582-6.6571-13.314-6.5001
		c-5.7466-1.7271-1.4446-3.988-3.6426-6.186c-2.0413-2.0098-3.7056,0.2197-4.8674-3.3286c-2.1038-6.3431,7.7249-7.1909,0-11.964
		c-1.0989-0.6594-0.0627,5.9663-3.2656,7.4108c-5.8408,2.575-7.8818-3.8311-14.3821-0.2512
		c-9.8286,5.4324-10.2681-8.918-16.0774-5.2126c-5.3384,3.4229-3.2971,1.2246-8.8552-1.2875
		c-4.8044-2.1981-2.041-10.2682-4.459-11.0847c0-8.5726-2.6064-9.2634-8.29-4.0508c-6.877,1.8842-15.7007-6.2803-12.0896,6.6571
		c1.5701,5.6523,4.5847,13.2828-0.5652,17.3336c-5.3384,4.1764-1.8213,7.0653-6.3433,3.3285
		c-3.4541-2.826-12.4663,11.5559-14.947,4.3962c-1.0989-3.1401,3.0774-3.4541-0.2512-6.7512
		c-8.1958-8.2273-9.7344-17.0825-20.6309-21.5415c-6.5313-2.7004-6.4685-5.4639-14.0364-5.4639l-8.0388-12.8431
		c-4.1763-6.6886-4.9299-6.0604-8.29-12.3722c-1.0046-7.1282,0.6597-14.3818,0.6597-21.5415
		c-5.9978-1.5072-9.0122-1.2873-13.4084-5.7151c-7.0969-7.1281-5.8723-6.1233-8.761-16.1716
		c-0.5654-1.8842,4.7415-8.8552,1.7898-9.6089c-3.8311-0.9734-11.0535,5.6522-16.4858,5.3696
		c-6.657-0.3455-5.4639,1.7585-8.5413,6.0291c-4.4902,6.2175-23.7708,10.8021-30.6165,11.4615
		c-18.6523,0-35.7034,5.1185-48.421,17.8047c-2.1039,2.1039-1.8527,5.3696-3.3914,7.5677
		c-1.8213,2.6377-12.6548-2.8889-13.9736-4.616c9.8287-13.063-18.1187-6.6886-18.1187-16.2661
		c-2.4493-0.8478-7.5992,8.7611-11.5243,8.7611c-5.0557,0-9.7346-2.9203-9.3577-8.1958c0.4082-5.1184-3.2344-5.9662-5.8408-10.5194
		c-1.3188-2.6692-2.3236-9.4519-5.2754-7.7249c-2.6377,1.5701-4.145-5.1812-7.9446-6.6571
		c-9.8286-3.7996-22.3264,2.4493-32.5005,1.2875c-1.5387-0.157-1.1305,4.4276-4.2078,3.1715
		c-2.7948-1.1305-4.302-2.983-6.4374,0.8165c-1.6957,3.0773-0.157,5.0869-2.7633,8.1329
		c-2.8889,3.4227-22.7346,7.9132-24.3676,3.4227c-1.5387-4.3334-3.2972-7.1909-1.8527-12.1838
		c0.6594-1.1304-0.5652-6.4373-1.5387-6.9397c-2.5121-1.2246-4.9301,0.7537-7.5677-1.6956
		c-7.0026-6.5316-8.1331-12.7178-12.0269-20.5052c-3.3914-6.877-5.5266-1.7584-0.8792-8.447
		c0.1885-0.2826,1.0363-1.6014,0.4709-1.7899c0-2.4179-2.9832-5.6209-2.9832-8.2271l8.604-3.4856
		c4.8987-2.0098-0.5024-7.3167-0.4082-8.6982c0.2198-3.8311-1.9155-3.2344,2.1982-6.3431
		c4.4275-10.0171-2.5122-7.7562-7.3167-11.2417c-4.0508-2.9203,2.1981-10.6765-4.459-14.382
		c-2.7006-1.5072,3.4856-5.401-0.4082-6.6885v-0.8792c6.5-2.1982-4.0823-7.3794-5.8407-7.9761
		c-6.0919-2.041-0.0941-8.0702-0.0941-11.4929c0-2.3551-3.0146-6.343,1.1304-4.9614c4.9614,1.6643,5.0557-3.988,7.0653-5.8407
		c0-6.2803-6.5629-2.8575-8.604-5.3696c-4.5532-5.6837-7.3165,2.7948-9.9857,1.4758c-4.2391-2.1353-4.2078,2.7006-7.8817,2.4178
		c-2.1354-0.157-5.6522-7.0024-4.302-9.1692c1.476-2.3865-4.2391-7.7561-4.6161-9.6089c-0.7222-3.4855,0.0629-6.4058-1.3188-9.7659
		c-1.4758-3.6426,2.9204-6.4058,1.7271-8.8552c-0.7535-1.5072-8.3213-0.9106-10.0798-0.9106
		c-2.5121,9.9858-8.1958-5.3696-15.7634,2.1982c-2.7319,0.5337-3.9567,4.6475-6.092,5.2126
		c-2.512,0.6594-4.1763-1.6329-6.1545,1.1304c-4.9929,6.9397-5.0243,1.0363-11.4617,2.8575
		c-0.5024,0.1256-2.9203-0.942-3.0773-0.4082c-5.1185,0-4.8987,2.0411-9.0436-4.1449c-1.5388-2.3552-1.5073-10.4253-3.0774-11.3988
		c-0.5652-0.3455-6.4688-1.3502-6.72-1.1305c-3.0145,2.4493-1.6643,6.2489-7.0024,1.9469
		c-2.0098-1.6329-7.3794,0.1256-11.4617-1.5387c-6.2803-2.575-11.3044-4.1135-16.3916,0.9734
		c-4.1449,4.145-3.925,1.4131-8.3528-0.4082l-5.9033-5.6522c2.198-2.1039,4.8357-4.8986,5.4951-5.6522
		c0.3455-0.4397,0-2.0725,0-2.3552c0-0.7535,5.8721-5.558,7.0654-7.5049c1.6956-2.7947-2.575-3.2971-1.6958-5.5894l-3.2029-0.4083
		c-1.0049-0.2826-1.0991-2.6377-2.3551-3.2657c-0.9735-0.5024-3.203,0.4397-3.7996-0.157
		c-1.0049-1.0049-1.3502-2.3865-2.0411-3.5798c-0.5967-4.9299,0-2.2609,2.8575-4.145c2.9518-1.9783-0.1884-2.7947,0.4083-5.0555
		c1.0989-4.3649,7.7561-3.8624,6.3115-8.447c-0.5337-1.8213,1.5073-6.2175,0.6595-6.4374
		c-0.3455-1.7271-5.5895-1.6642-6.7513-6.0918c-0.5338-2.1667,0.2197-8.447-3.8938-5.3069
		c-2.3865,1.8528-1.5701-3.8938-2.8262-4.0508c-3.8623-0.4397-2.4492-1.2561-3.8309-5.3696
		c-2.1666-6.5944-6.7513-3.4856-7.6934-6.2489c-0.6908-1.9784-4.6161-3.3914-4.3962-3.8309
		c1.2561-2.5122,3.5797-2.8262,6.0919-3.2659c1.7585-0.2826,7.1595-2.7319,8.8552-1.4443
		c5.7151-4.3335,10.3938-0.1571,15.2611-5.0557c0.8478-0.8479,4.4276,0.9734,5.778,0.9734c4.7729,0,5.6208-1.9783,9.3262-3.0774
		c1.0049-0.7222,3.1401-2.5121,2.041-3.988c0.5967-0.8478-3.6426-7.8817-3.9879-9.2947c-0.942-3.6741,1.9783-7.191-1.5387-10.3312
		c-6.3745-5.6837-9.0122-9.7659-17.5535-9.7659c-1.4758-4.4276-0.7222-6.9397-5.6836-9.6716
		c-2.8262-1.5387-5.7778-9.2634-6.9083-9.2634c-3.5485,0-5.6837-0.4083-5.4325-4.6475c0.314-5.5895-6.4688-1.1617-5.7778-8.7924
		c0-2.0098,0.7537-5.7466-0.5652-7.2224c-2.3866-2.7319-2.6378-2.0725,0-4.4904c0.3453-0.2826,2.9517-2.7006,1.7271-2.9832
		c0-3.0145-1.1305-2.1354,1.9468-5.2126c1.5388-1.5701,0.4397-4.145-1.1617-5.3069c-6.1233-4.4276-6.72-2.4178-6.72-9.8286
		c0-2.889-6.1233-0.3768-6.5001-3.0774c-0.157-1.0048,0.0629-4.5846-1.1304-4.7416c-1.4131-0.157-4.2393,0.2512-4.8044-1.4446
		c-0.7852-2.355-2.0098-2.4492-2.7634-3.7681c-2.3237-4.1136,2.2295-14.8215-8.604-11.7756
		c-3.0459-1.1304-4.1763-2.1353-2.5121-5.1184c0.3768-0.7537-1.1932-3.674-1.6329-4.6475
		c-2.3865-5.3381-10.802-0.2512-14.1306-0.2512c-4.7729,0-3.3599-1.4443-8.1329,1.947c-1.2561,0.9106-3.8624,0.2825-5.3383,0.9734
		c-4.8044,2.2922-9.0751,7.3479-14.4761,7.976c-4.5847,0.5653-2.0098-3.36-4.616-4.2078c0-2.9518,3.6738-3.7682,3.4855-5.621
		c-0.2826-2.7004-6.8768-2.3865-8.6981-1.8213l-4.7103,0.0942c-6.2489-7.8503-10.7706,5.0557-16.4857,1.2247
		c-2.0688-1.3871-5.6511-3.6184-9.0869-4.6527h-5.9329c-0.0273,0.0137-0.0573,0.0226-0.0844,0.0366
		c-4.2706,2.261,1.9783,8.5098-5.5895,7.7876c-2.2922-0.1885-9.2007,9.7345-9.2007,3.0146
		c-0.3767-0.0942-7.7876,7.1594-8.0388,7.8817c-1.0676,3.517-7.5049,3.8309-10.802,6.8456
		c-6.6257,5.3068-3.988-1.6329-6.8142-3.8311c-3.2656-2.5435-6.7198,2.7004-10.0798,2.7004c-3.1716,0-5.4011-1.4758-8.604-0.157
		c-7.6306,3.1089-19.4375-13.6597-27.1309-14.2562c-2.4493-0.1884-6.2803,2.826-6.6572,2.4493
		c-5.0869-5.1184-18.2128-6.563-15.5751,5.0557c0.9106,4.0822,4.6161,3.3599,4.6161,9.5146c0,1.5386-6.0919,1.1304-7.0654,2.6691
		c-3.1715,5.2126,2.0098,10.6765-1.7898,15.952c-2.575,3.5483,4.6475,1.8527,6.4373,2.4492l-12.8433,11.3046
		c-1.6643,2.2924-4.8672,1.4445-7.1594,2.6063c-1.8528,0.9421-2.8577,5.0557-4.7102,4.5532
		c-6.1233-1.7271-3.988,4.302-10.1428,4.302c-1.6642,5.0557-10.0483-0.1885-13.1572-0.5024
		c-2.2609-0.1884-18.307,2.2924-10.8962-3.0774c3.5798-2.5748,4.4276-3.7996,0.0942-5.3696
		c-5.7151-2.0725-4.5532-4.3334-11.6187-3.4227c-1.0048,0.1256-1.7898,0.1884-2.3865,0.1884c-2.2922,0-2.4807-0.8164-5.8093-1.8213
		l-3.6426,1.1619c-1.8213,0.6909-3.5483,1.79-5.3696,1.1305c-1.099-0.4082-1.4443-2.2295-3.0144-2.3551
		c-3.7997-0.2826-7.2224-0.157-11.1162-0.157c-2.6063,0-4.9301-1.1305-7.4108-1.3816c-5.7778-3.2972-8.5726,3.3914-11.9325-1.8842
		c-2.0411-3.2344-7.348-2.7319-10.551-2.2609c1.2247,2.4178-4.0508,5.2439-5.7778,5.8406
		c-3.1086,1.1305-2.2609,8.6982-4.2078,11.2417c-7.2537,9.3577-11.5244-3.5168-16.6428-3.8309
		c-7.4735-0.4711-3.9565-4.1136-11.5557-3.3285c-5.2126,0.5337-13.3142,5.1812-17.4592,1.0361
		c-3.6741-3.7053-2.8262,9.1379-3.1716,9.4519c-1.5701,1.3816-3.4856,8.761-2.8262,9.7659
		c1.4131,2.1039-3.3285,1.0049-4.0508,3.4856l-4.8044,5.2754c-0.3453,1.4131-4.3647-0.314-5.0242,0.5652
		c-1.3816,1.8213,1.3503,3.7683,1.1304,6.1862c-0.1884,2.1039-3.5483,6.3116-5.2126,7.505
		c-3.6738,2.6377-9.6401-0.3455-10.2368,7.7876c-0.4709,6.9082-5.087,2.5435-6.9712,5.9663
		c-1.6956,3.0773,5.2441,10.1426-2.1038,10.8962c-2.6692,0.2512-5.8721,2.7319-1.476,3.0774
		c3.3914,0.2825,2.6378,1.5386,0.8165,5.1184c-0.5653,1.1619-0.3455,5.1184-2.1982,5.1184c-1.3188,0-3.1715-0.8164-4.616-0.157
		c-5.6208,2.5435,1.2875,6.343-0.9734,8.6354c-1.7899,1.7899-4.0823-0.3768-6.0919-0.5652c-3.046-0.3141,2.2924,5.558,0.157,6.5001
		c-1.3817,0.5967-3.203,0.8478-2.4493,2.7633c0.7852,1.8842,2.9518,2.8889,4.4905,3.8309c2.3237,1.4446-3.5798,2.6377-3.6741,2.7634
		c-1.884,2.2609,3.4229,2.7319,4.4905,4.2391c1.1619,1.6643-4.1764,1.1932-2.9517,4.4591c1.3501,3.5796,2.1353,2.9202,4.3961,4.082
		c0.4396,0.22,1.8527-0.6594,2.0411-0.2512c0.9734,2.2925-1.5387,3.2972-1.7271,5.3698c-0.1885,2.6063,2.3237,1.3188,3.1086,2.2609
		c2.261,2.7947-1.6956,4.145,3.2344,7.5679c3.36,2.355-2.5121,2.2922-3.0774,3.1086c-1.6642,2.3865-0.8164,4.0508,0.5653,6.2489
		c1.3188,2.0725,2.7319,0.6908,3.7367,1.7272c1.2876,1.2874,3.3286,8.3213,2.7634,10.1426
		c-0.8793,2.7947,0.5024,2.7319,0.7222,5.8721c0.1885,2.575-4.8986,2.575-5.9348,4.2393c-2.7319,4.4905,1.4445,4.1135,2.198,6.0918
		c0.3455,0.8794-0.8478,2.5122-1.2246,2.8577c-0.9734,0.8478-2.2922,1.2246-3.3286,2.0096
		c-1.3501,1.0676-2.0724,1.5701-2.5748,2.2609l-2.6063-0.314c-3.0145,0-4.2393-3.6112-8.447-2.5122
		c-4.6788,1.2247-0.5338-4.4275-0.9734-6.0291c-0.4082-1.4131-4.8987-0.8792-6.0919-0.8792c-2.7948,0-5.1813-2.5122-6.7513-4.6475
		c-1.3503-1.7899-8.1643-6.7513-5.0242-9.0122c4.459-3.2344,2.3865-6.563,1.2874-10.9905
		c-0.0942-0.0315-0.3767-0.2827-0.4082-0.4083c-5.1812-1.2875-7.0653-7.5677-11.4302-10.6451
		c-1.6956,0-8.2271-5.0869-10.1741-6.0291c-3.7996-1.8527-3.8623,4.9301-6.657,1.7899c-0.1571-0.1884-1.6016-1.7584-1.8528-0.9735
		h-0.157c-2.1981,6.5944-13.8481-4.302-16.423-0.0941c-4.302,7.0653-12.6862-0.8478-14.5389,6.4373
		c-1.7584,6.9083-4.5532,3.4856-9.5774,3.4856c-2.1667,0-2.9832,3.5797-5.2126,2.3866
		c-10.5823-5.8722-1.7585-11.6187-4.3647-16.8627c-1.4131-2.8262-7.0339,0.0314-8.2273,2.0411
		c-2.9203,4.9614-8.5413,0.3453-10.4567,7.0024c-1.5387,7.8191-5.778,0.157-8.7924,0.157
		c-0.7223,2.1982-0.6909,5.1814-1.6016,7.2538c-1.2874,2.7948-0.0942,4.7416-0.9106,7.3165
		c-1.4131,4.5847-9.2948-0.0942-13.0002-0.0942c-2.1038,0-7.1594,2.8262-8.2585,4.3962c-4.8358,6.72-4.7102-4.0193-4.302-6.2488
		c-1.0049-2.0098-0.8479-4.3649-1.7271-6.1233c-0.5967-1.2247-4.145-1.3503-4.0508-1.5388
		c-5.4953-3.6426,0.5652-25.5922-6.7513-23.8337c-3.2344,0.7852-2.0097-5.5266-2.8262-7.1594
		c-0.5652-1.0991-5.401-4.5219-5.6208-6.2489c-0.2512-2.1981,1.4131-3.2344-1.2875-4.1764
		c-8.6668-2.9832-5.8406,4.1764-13.3142,6.5315c-3.1716,3.1715-3.3286,7.9446-8.133,9.6716
		c-2.7947,1.0049-4.2392-3.6111-9.4204-3.2657c-10.0485,0.7223-15.4182,8.7296-18.5269,16.9254
		c-2.8575,7.6306-0.5652,11.3044-1.9469,18.2129c-5.1498,0.7537-2.6063-4.3962-5.0242-6.8142
		c-1.9469-1.9468-4.8358,7.2852-6.6571,0.157c-2.1353-8.2271-4.145-15.6692-4.145-24.3989
		c-3.2657-1.0676-6.9711,0.6909-10.3311-0.157c-2.4807-0.6594-4.7416-2.0725-8.1016-2.9517
		c-9.8601-2.5436-8.1644,3.5483-15.9206,7.9131c-8.6982,2.1353-2.3237-1.9468-7.0653-7.3165
		c-2.575-2.9203-6.4059-8.1958-9.8287-9.0436c0-4.8359,4.1136-14.0679-3.2657-10.8022c-4.0194,1.7585-9.6403,5.8722-9.6403,10.551
		c0,6.1233-21.1018,15.2925-27.2251,15.2925c-3.2029,0-0.1884-4.6475,0.3454-6.5942c1.2247-4.4591-4.4904,3.1086-5.6208,0
		c-2.0097-5.6208-2.6063-6.6257-8.3528-8.8552c-8.4156,3.6426-0.314,10.5194-2.2923,18.2129
		c-0.8478,3.3914-3.0146,1.884-5.0871,3.5168c-3.674,2.8262-1.2246,9.9543-4.7102,11.964
		c-2.7947,1.5701-7.7247-5.6837-9.9229-7.2538c-5.8093-4.1763,2.8261-10.4253,4.459-14.7273
		c4.6788-12.3093-14.5389-5.9976-17.7732-10.0171c-1.8527-2.2922-9.7659-2.4492-10.0799-2.1038
		c-1.5701,1.7898,1.4131,5.3696,0,7.6619c-1.5701,2.5435-4.0822-2.418-4.7102-3.4227c-2.1667-3.5797-14.3819-0.3768-17.7104,0.6594
		c-2.6691,0.8164-9.8287,0.785-12.3408,0.157c0-9.2634,6.0605-11.6813-6.1547-13.2828l-0.5966-22.7661l-26.6913,0.5024
		c-2.7319,0.6909-3.4856,6.7513-6.5001,6.7513c-2.4179,0-3.6426-2.3865-7.7247-2.1353c-2.2296,0.157-2.9832-2.418-4.8672-2.9203
		c-3.046-0.7852-5.0557,3.0144-7.1595,1.6956c-2.0097-1.2246-5.7151-5.6208-6.2489-7.7247
		c-1.4131-5.558-6.7827-6.6571-12.0267-6.6571c-5.1185,0-13.3456-1.9155-15.9834,3.4229c-0.9734,1.9154-7.2224,1.5386-9.5146,1.5386
		c-0.0314-0.0942-0.2512-0.2197-0.314-0.2512c0-3.1715-6.1861-6.2803-9.4204-6.9083c-1.7271-1.7271-0.6594-6.3431-1.2247-8.6354
		c-2.2609,0-4.9301,2.4492-7.6306,2.6063c-3.7996,0.2512-5.0242-1.7899-8.0388-2.0096c-6.4687-0.5024-14.2562,5.6836-18.4326-3.2659
		c-3.1716-6.7827-8.6354-4.0508-10.5823-7.0653c-3.4227-5.401-11.5557-1.7899-16.1404,0c-2.6063,1.0049-6.9083-1.3817-9.6716-1.9783
		c-5.3696-1.099-4.2078-2.826-7.4736-3.8938c-0.628-0.2198-4.0193-0.7535-4.0508-0.5652c-0.4082,1.5701,1.4131,3.9879,0.4082,5.2755
		c-1.0991,1.3816-13.5026,0.9106-15.4495,0.6594c-4.0822-0.5024-14.2563-4.145-17.051-3.8311
		c-4.8358,0.5652-7.5991,3.2657-14.0364,3.2657c-10.9277,0-22.1381-14.005-31.6841-9.4518
		c-3.517,1.6956-5.5581,3.1715-9.5775,3.1715c-6.9083,0-14.4447,9.8915-19.9714,11.7128c-5.244,1.7584-4.8672-5.3384-10.4253-1.1305
		c-7.5991,0.942-3.5483-1.7584-6.5629-2.5121c-0.5338-2.1981-5.3068,3.6426-5.8406,4.302c-1.2247,1.5386-5.5895,3.988-7.2224,2.1353
		c-1.6643-1.8527-12.1524-5.0557-14.5389-3.988c-4.2706,1.8842-9.4833,3.6426-14.2249,3.6426
		c-6.3116,0-13.1572-1.9154-18.8409,1.3817c-5.6208,3.2657-4.2392,11.7441-9.9229,13.1886
		c-0.8165,3.36,1.1932,11.7441,1.9469,15.7008c-6.6885,8.9808-17.9302,9.0751-25.2468,17.4906
		c-5.9977,6.877-10.3939,19.4061-21.51,15.9519c-5.7779-1.8213-14.0364,1.5073-9.2634-7.1594
		c4.773-8.761-15.6694,0.7222-13.6597-7.1597c0.8478-3.2971-23.8023,3.7054-23.4569,7.4736
		c0.157,1.5701,7.191,11.1475,4.459,12.0267c0,0.4711-0.0314,0.5653-0.157,1.1619c-3.6426,2.889,3.7368,7.3794,4.616,9.6718
		c0.3454,0.8478-0.785,2.512-1.6957,2.6062c-1.4131,0.1257-3.2029-0.4082-4.773-0.4082c-0.5338,0-1.0363,0.0627-1.4759,0.2512
		l-0.6594,3.0774c2.0725-0.2512,10.2997-1.5073,7.3165,2.6063c-3.674,5.0555-1.9155,4.5846,2.4493,6.0291
		c0,0.157-0.0628,0.0942,0.0628,0.157c0,6.4374,3.4228,4.5219-1.4445,11.0533c2.5749,3.4856-2.6691,4.9929-2.4493,7.4108
		c0.3768,4.0822-2.5121,3.4855-1.6957,7.4735c0.3768,1.8528,0.314,4.0194,0.314,5.8721c1.0048,0.3141,1.0048,1.6329,2.7633,1.6329
		c0.9734,0,2.1667,0.0629,3.1716,0.3768c1.9469,0.6908,4.773,5.5581,4.2078,7.5049c1.8841,4.3649-0.5339,7.9132,4.8986,9.4204
		c3.3599,0.9421,4.8672,4.3649,6.8769,7.1597c1.2247,1.6643,3.5798,1.6643,4.8044,2.7633c3.6112,3.2343-1.1619,5.8092,0.157,8.4784
		c1.3817,2.7633,2.9517,9.4204,6.1861,9.4204c4.6474,0,2.7005,11.0533,3.1715,13.9109c0.8165,4.9614,1.7585,2.575,4.302,5.4639
		c1.2561,1.4131,2.9203,5.9663,4.2078,7.976c1.9469,3.8624,5.6208,9.5146,9.3576,11.3673
		c2.5435,1.2875,9.4519,3.3286,10.9592,6.3431c1.4758,2.9832-5.6209,3.2972-7.2224,4.5532
		c-4.9301,3.9252-10.0171-3.517-13.9737,1.1619c-3.7996,4.4276-2.7005,14.8843,4.145,14.8843
		c0.8478,3.4542,0.157,7.4421,4.0508,8.8552c2.7634,1.0049,5.1498,3.203,3.0773,7.819c-1.413,3.1401,0.7537,2.6063,1.7899,4.7102
		c1.3817,2.7634,1.4445,6.9712,1.6957,10.1741c0,10.8964-2.0411,25.2155-7.2852,34.8242c-1.6643,3.0146-5.2755,1.0676-5.2755,6.092
		c-0.1256,0.0313-0.157,0.0627-0.1884,0.157c-0.157,0-0.1884-0.0629-0.2198,0.0941l-3.9252,0.7223
		c-6.5629-3.9253-26.3459,3.8623-32.218,6.0918c-4.0194,1.5073-4.145,9.8916-4.7102,10.08c0,0.5652-0.5966,0.5023-0.6594,0.7535
		c-5.3069,0-4.7731,4.7103-8.1958,6.6572c-4.8358,2.9517-6.2175,8.4784-10.8021,11.3044c-4.8358,2.9832-8.9808,4.7102-12.435,9.3577
		c-3.3286,4.4905-23.1429,20.9448-23.1429,23.8337c0,3.36-10.6765,10.0171-7.7248,10.9905c0,3.1401-6.3431,9.1064-8.6668,11.4617
		c-5.9977,7.5049-14.1307,16.3287-18.4641,24.7444c-1.1619,2.2922-3.6426,2.355-4.5218,4.3961
		c-1.3817,3.046-1.6957,6.3745-4.0822,8.7611c-8.0074,8.0701-17.3651,19.249-22.6405,29.5487
		c-5.7778,5.7465-9.8286,10.8021-12.6862,18.3071c-2.3865,6.2175-7.2852,6.3745,1.0676,11.5244
		c3.0773,1.9155,8.6354,33.5682,7.6934,38.9692c0,2.9518,1.1305,10.0799-0.314,12.4664c-1.256,2.0724-5.5894,4.3962-0.7222,6.8141
		c2.0097,1.0049-1.3188,4.0822-1.6957,5.2126c-0.6908,1.9469-1.7271,7.0654,1.7585,3.0773
		c1.8841-2.1039-0.2198,7.2538,5.1185,4.5532c2.4807-1.2246,4.4904,8.2272,9.6088,6.8455c1.1305-0.314,0.8165,3.3286,1.2875,3.0146
		c0.157,0.6594,3.0773,0.628,3.6426,1.9469c1.1619,2.5435-2.0097,3.674-1.3817,4.7102c0.628,1.0363,1.3502,1.2247,0.9106,2.5435
		c-1.2561,3.7996,3.6111,9.7031,0.0628,9.9857c-4.0194,0.3455-3.2657,1.1933-5.2755-2.8261
		c-0.5652-1.1932-2.3551-1.1619-3.3914-2.1981c-4.0194-4.0194-9.1379-1.0048-11.964-3.831
		c-2.0725-2.1039-5.244,2.5121-7.7876,1.2247c-2.8889-1.5073-2.4493-5.244-5.9977-6.8455
		c-3.1401-1.4131-3.2343-2.2609-4.2706-2.2609c-0.6909,0-1.8213,0.4083-4.616,1.2875l-0.1256,4.9614
		c0,3.4856-1.4759,5.1185-1.4759,8.4784c0,4.8359-3.6111,3.1716-6.2488,4.145c-3.0774,1.0991-2.7006,2.7633-3.8938,5.2755
		c-1.3503,2.7947-3.4542,5.2755-4.6475,8.2272c-1.4758,3.6426-1.0048,8.918-3.3286,11.9326
		c-2.3865,2.4179-4.5846,7.976-3.4855,11.1475c1.6642,4.7731-1.3817,5.5267-2.7634,8.8867
		c-1.9468,4.8044,1.6015,16.3602-5.4324,19.4375c-6.8141,2.9518-6.4059,6.5629-10.8021,10.9905
		c-2.1353,2.1353-6.0919,4.3962-8.6982,6.1547l-1.2475,10.3782h2348.0422c-1.6221-10.0183-10.2141-9.7188-19.5991-9.7188
		c-11.9326,0,1.2246-15.9833,0.8164-21.3844c-0.1885-2.2609-2.7319-5.5267-0.6594-7.819c3.8625-4.302,2.1667-1.3817,3.0774-6.9083
		c0.6594-4.0508,7.8818,1.2247,6.4058-5.9349c-0.3767-1.9783,1.2563-9.3262,3.5171-8.9494
		c5.9036,0.9734,25.3726,17.8674,26.7854,2.5121c2.5122-2.1981,7.6306-5.1812,8.7925-8.447c0.4709-1.4131-2.5435-8.6354-3.8308-8.29
		c-8.824,2.3552-3.4543,12.7805-13.3145,5.4325c-1.2874-0.9421-13.5654-2.0725-14.4761-1.7899
		c-4.302,1.4445-2.3865-1.6014-4.2078-3.6426c-2.6377-2.9831-5.1812,0.2198-2.9202-5.6208c0.7222-1.8841-4.2393-6.5629-5.0557-8.133
		c-0.7539-1.5701-3.6426,0.314-3.7368,0.0628c-0.6597,0-1.1619-2.4807-1.6958-3.0773c-1.1619-1.2875-2.8889,0.5338-3.988,0.2512
		c-3.2971-0.9106-1.5386-5.2441-0.2197-7.0026c-2.1353-2.8575,3.2344-5.3696,5.7463-4.2392
		c5.2441,2.3552,4.9302,2.1667,9.5146-0.8792c2.6379-1.7585,6.1863-1.0677,9.2637-1.5387
		c4.4275-0.7222,8.8237,3.4542,10.1426-1.1619c2.041-7.0967,4.4905-9.546,8.1958-15.6065c1.9155-2.1667,1.8525-5.558,3.8311-7.3165
		c1.884-1.7271,4.8672,0,7.0652-1.7899c2.9832-2.4493,6.0605-9.4832,8.1958-10.6765c2.6377-1.4445,5.1499,1.7899,8.1958-0.2198
		c1.4131-0.9421,1.947-1.8841,1.947-2.7947c0-2.4179-3.7056-4.773-4.208-7.4736
		C1615.0493,140.8973,1616.5566,136.3754,1615.4888,132.0734z"/>
	<path fill="#FFD500" d="M-778.2151,318.3471l1.0363,5.9349l11.0847-0.7222c1.4759-0.2827,3.3914-0.0942,4.7731,0.2512
		c0,2.3552-4.6475,7.819,0.9106,9.7345c2.8575,1.0048,5.0242-0.6909,5.0242,3.5798c0,4.5218,2.6063,5.6837,2.9203,10.1113
		c0.1884,2.4807,6.1233,9.1378,5.0242,10.5509c2.1981,2.1981,3.988-1.1304,6.1861-1.9469c2.1039-0.7537,3.2971,0.9106,5.2755,0.9106
		c1.3817,0,7.0653-3.7996,7.0653,0.5652c0,3.0773,1.6957,5.6208,4.3962,7.2224l2.6691,1.7899c0,4.9614,4.2392,7.5677,4.2392,11.1475
		c0,1.8213-0.7537,8.447,1.8527,8.0702c6.7513-1.0363,5.7465,1.2247,12.435-2.9203c3.7054-2.3237,9.9543-0.8164,14.0364,0
		c1.3189,5.2755,9.1064,6.6257,9.1064,12.749c0,3.1715-2.3237,5.3383-3.0773,8.0702c-1.2247,4.3334,2.2295,4.3962,2.9203,7.1595
		l2.1667,3.7368l5.8407-1.9469c0.5338-1.9469-0.9734-6.3745-0.6281-7.0967c-0.5024-0.471-1.2875-4.8044-0.2512-3.988
		c2.2923,1.8213,5.8721,2.6691,8.6982,4.2392c3.3286,1.8527,13.377-1.3188,13.4712-5.2126l0.157-6.8141
		c0.0942-3.3599,2.9203-3.0773,2.9203-6.8455c0.1256-0.0314,0.0942,0,0.0942-0.157c0.7222-0.2512,1.8841-1.4445,2.4493-2.1981
		c-0.5024-0.6594,1.2246-2.4179,1.3817-2.8575c0.471,0,1.2875,0.157,1.4445,0.6594c4.773,0,2.3865,3.4856,6.7513,3.4856
		c3.2029,0,11.5872-0.2826,9.8287,6.0291c-1.0049,3.5798,1.0048,3.7368,3.7996,4.4904c2.5435,0.6281,2.8575,4.145,3.674,4.145
		l17.1138,10.3939c1.0048-0.314,2.5435-0.157,3.674-0.157c0.8478-2.6377,3.3914-4.8358,3.3914-8.2272
		c0.1256-0.0314,0.5339-1.0049,0.5967-1.1305l12.4977,2.5121c5.7465,1.1619,2.5435,5.9663,9.9857,2.7006
		c8.6982-3.831,14.3818,2.7947,18.3384,9.2634c1.6957,2.7633,12.4664,0.942,14.6331-0.9734
		c3.7996-3.36,16.8625-1.6957,18.6838,3.0145c3.3914,8.7296,13.8167-0.5338,16.3288,7.0653c1.6957,0,2.9832,0.5652,4.773-0.2198
		c2.7634,0.157,8.3214-5.087,9.9857-4.2392c7.7562,3.8624,7.2851-5.9977,12.3721-7.976c2.889-1.1305,4.7731,1.0048,7.3794,1.6329
		c2.9832,0.6908,5.1812-1.6015,7.9446-1.0677c-0.0314,0.0314,4.93-0.471,7.6619,1.9469c2.575,2.3237,3.674-0.785,5.6837,4.145
		c1.0362,2.6063,2.9517,3.831,4.616,5.9662c1.0363,1.3189,0.4711,4.6475,0.7222,6.3431c1.0363,6.8455,14.2563,5.5894,15.1984,7.4735
		c1.6329,3.2344,6.7827,1.0991,5.5267,5.6837c-0.5339,1.8527,3.8624,7.1595,5.3696,8.6354c1.0991,2.5121,0.314,6.1861,3.4855,6.1861
		c4.2706,0,7.8818-1.0991,12.1838-0.5652c2.0097,0.2198,3.2344-1.413,4.616-0.6594c1.7899,0.9734,2.3551,0.314,2.3551-1.6329
		c5.7465-1.413,6.6257-0.2826,10.8021-6.7513c2.0725-3.203,3.2972-2.4179,5.2755-4.0508c1.7271-1.413,0.9106-4.8358,2.1353-6.9397
		c2.4807-2.6691,3.6426-3.8938,5.9977-5.8407c1.1932-1.0048-1.9469-6.3117,1.9469-5.8721c4.4904,0.5338,8.133-4.4904,13.9736-5.2755
		l36.3002-4.8672c9.546-1.2875,20.2853,4.0193,27.6019-3.2658c3.0774-2.1981,40.2567-7.7562,41.921-5.7778
		c9.1378-3.4542,14.162-18.7467,19.2491-26.6913c1.9783-3.1088,5.9977-13.7225,8.1958-14.6331
		c3.0773-1.256,5.1812,1.8841,7.976,0.157c3.2658-2.0097,3.1716-2.0097,6.0919-3.2344c-0.1884-0.7536,2.5749-2.3865,3.3914-2.3865
		c0.9734,3.0145,11.6185,0.314,13.5654-0.785l1.8841-3.5798l4.145-3.517c-2.7947-2.1353,4.4276-10.2369,5.9977-11.7756
		c3.6111-3.6112-0.0314-11.3674,5.1184-3.5798c1.0991,1.6642,7.3794,7.8503,8.761,8.6982c3.7368,2.2924,6.6885,0.3455,5.7778-3.9252
		c-0.942-4.302,0.9421-5.9977-3.988-6.4059c-4.1764-0.3454-9.4832-6.6257-9.4832-10.8963c0-3.8938,2.6691-1.0049,4.3648-0.6595
		c1.4445,0.2827,1.9469-2.4807,3.674-2.2923c4.2392,0.5024,7.5049-0.9734,11.6813-0.9734c3.4542,0,2.1039,10.1113,9.5146,10.5823
		c1.8841,0.1256,6.6257,2.1353,7.6934,0.157c1.2875-2.2923,2.8262-2.8261,5.4639-2.8261c0.9735-3.9252-3.7996-10.4253,0.314-9.2949
		c2.2923,0.6281,3.831-3.0773,5.0242,0.2512c1.0049,2.7947,0.9734,5.0557,3.3286,7.4108c3.5484,1.8841,2.7947,4.1136,6.9083,1.1304
		c2.0411-1.4445,4.4904-2.5749,6.0291-0.0942c0.6594,1.0991,10.8335,1.5701,11.4301,0.5966
		c1.0049-1.6015-0.1884-3.046,0.5652-4.5532c2.2923-4.5846,5.558-13.8167,10.5823-4.8986c2.1039,3.7682,3.7054,3.1715,7.6306,3.1715
		c2.9831,0,2.8889-4.2706,4.773-6.1861l5.3068-3.7368c2.8575,1.1619,7.6934-4.1764,11.6814,0.314
		c7.6934,8.7296,15.5437-0.314,24.5245,2.7005c3.7054,1.2247,5.6523,4.9615,9.9229,6.5001c2.8575,1.0363,3.36,6.3117,4.7103,9.1064
		c6.7513,14.2563,27.3506,4.5218,26.2202,19.2805c-0.157,2.1039,0.2198,14.5703,4.5532,7.5049
		c1.4445-2.3551,8.447-10.2369,8.447-2.1353c0,2.889-0.0314,9.5461,4.616,6.6885c2.0725-1.2875,7.7248-6.1233,10.0799-5.0557
		c5.0557,2.2924,10.6765-5.087,10.0799,5.5267c-0.314,5.4325-4.7416,6.3745-7.5677,10.2683
		c-2.6063,3.6111,0.8792,5.3383,4.2392,3.4855c3.1401-1.7585,10.6765-12.4978,12.592-2.6063
		c1.0676,5.6837-5.558,7.9132,0.314,13.0944c10.1113,8.918,5.3068-3.7996,8.4156-6.7513l1.5701-5.0242
		c5.6837-1.9155,3.2972-6.1861,11.1161-3.988c4.459,1.2247,6.8455,4.7731,11.0533,4.7731c0.9421,2.8889,1.5073,2.8261,4.3962,1.884
		c3.0773-1.0048,3.831-0.6908,6.3117,1.0677c3.1401,2.1667,8.1016-3.3914,11.2103,2.9203c2.8575,5.715-2.7947,10.8335-0.314,16.9254
		c1.1304,2.7634,3.7054,3.203,4.8672,5.8407c1.3502,2.9832,2.7005,4.8672,4.8672,7.5677c8.1016-8.1016,7.819,3.517,15.9206,3.988
		c4.6788,0.2827,5.6208-1.8527,5.6208-6.0291c0-0.9421,0.1256-3.3914,1.5387-2.6691c1.8213,0.9106,1.8527,0,3.0773-0.4082
		c0-0.3455,0.2512-0.6594,0.2512-0.9734c1.3817-0.4396,4.93-0.4082,7.0653-0.4082l3.4856,20.4109l9.0123,0.0942
		c0.9734,3.831-7.2852,7.7248-8.8553,11.2103c-2.1667,4.9301,2.8262,8.9495,7.0026,5.7779
		c4.1765,3.1716-0.0314,10.6765-3.4228,12.8432c-5.4011,3.4856-3.6426,7.7876-0.4082,12.121
		c-1.2875,1.7585,0.157,3.1401-2.5121,4.4904c-1.9155,0.9734,0.4083,3.674,1.8841,3.674c0.3454,1.3817,0,0.7851,0,2.1667
		c-0.8792,0.2198-1.3188,2.8575-1.2247,3.831l-3.2657,2.7005l-0.4082,4.2078l-3.7996,0.2512l-3.988,2.4493l3.4228,9.6716
		l4.302-1.2874l1.1304,6.3431l-2.4493,4.0508l1.6329,0.3455l0.2512,6.4059l6.8141-7.2224l1.0677,9.8287l2.8262-4.5532l6.343-2.4493
		l2.1981,15.2925l7.5364-1.1932l0.2512,5.1184l-1.5387,0.8165l2.1981,9.0122l3.7367-0.8792l0.0629,2.4179l7.4735-2.7634
		l0.6594-10.0798l11.2104-2.1039l3.3285,21.6356l-6.2489,2.2609l3.4856,21.1646l-10.5509,1.3817v3.8938l2.0411-0.4082l1.9468,7.0967
		l2.8262-0.0942l-0.2512-3.3286l8.6982-0.7222c0.9734,0.9734,1.1304,4.145,1.1304,5.5895c0,0.7536-0.1255,5.4324,0.2512,5.5267
		c0,0.4396-0.4082,0.2198-0.4709,0.4082c-3.7053,0-2.9517,6.5315-2.9517,9.1378c0,5.2755-1.8528,4.8358-5.9036,6.1547
		c0,2.0096,2.5435,2.7319,2.8262,3.5798c1.2246,0,6.186-1.1619,6.5-2.1039c3.7997,0,0.4082,7.9446,5.6208,6.5001
		c4.6475-1.2875,6.5002-3.046,7.9446,2.0411l2.6064,9.2007c2.575,0,15.7322-2.4493,16.2346-4.5532
		c3.6111,0,2.1666,7.7875,4.1449,10.2369c3.7682,4.6788,8.1329-4.3648,8.1329,2.1353c0,3.517-4.0822,2.7633-1.3816,7.6306
		c1.884,3.4227,1.8527,8.133,2.6692,11.9639c1.5386,7.0967-3.1401,12.0582-1.947,17.3336c0.8793,3.8624,1.0049,5.6209-2.041,9.1064
		c-0.8164,0.9421,1.0049,3.674,0.4082,5.2126l-7.1282,1.1305c0,1.9468-0.157,5.087,1.8528,6.0919
		c2.7004,1.3503,1.7584,0.7537,3.3285,3.4856c1.3502,2.3865,4.6788-1.1305,7.3165-0.3768c2.9518,0.8164-0.5338,5.244,1.2875,5.6837
		c6.5315,1.6015,2.1354,1.8841,8.447,6.0291c5.5895,3.6425,4.3334-0.7851,8.604,4.145c0.7535,0.8478,1.3188,1.8527,1.8527,2.8575
		l-0.2197,0.1256l1.7898,2.9517c2.7006,0,10.0171-1.8213,11.6814,0.0628c2.041,2.2923-2.9518,5.4325,1.0676,7.9132
		c2.9517,1.8213,1.9469,2.4493,3.0145,5.1812c1.099,2.889,4.9614,4.145,4.9614-0.2198c0-1.6643-1.0363-2.575-0.4082-4.4904
		c0.4396-1.3817,1.0049-3.046,1.2875-4.459c0.4082-0.0942,0.3768-0.5652,1.0676-0.5652c1.3188,4.0822,1.1934,8.7924,1.6957,13.3142
		c0.7223,6.6885,5.1185,3.9252,9.2634,6.2803c1.4131,2.1039,3.5485,2.7947,4.2079,5.5266c0.8792,3.517-2.8262,6.8455,0.0942,10.0171
		c2.6377,2.8575,8.7922,6.6571,9.6716,9.9857c0.6594,2.5121-3.4542,5.6837-2.6064,9.1064c0.7537,0,11.7441-17.1766,12.4351-19.5945
		c2.041-7.3479,9.7031-11.5871,10.865-19.8457c0.8478-2.8575-0.6282-3.3914-1.6329-5.6208
		c-0.4396-1.0049-3.517-4.8044,0.0941-3.1716c3.1089,1.4131,4.0823,7.1281,6.9084,0.2512
		c2.6062-6.3745,8.3528-7.1595,8.3528-14.5703c0-3.3286,0.9734-5.8721,0.5652-9.3577c-0.3455-3.1401-2.8262-4.0508-3.3914-5.8406
		c-3.1716,0-1.7585-5.3697-0.5652-6.8455c1.4443-0.9734,4.3647-6.6885,6.8141-5.1813c4.5532,2.7947,11.1476-2.3865,15.9205-3.831
		c4.8987-1.5073,8.3528-3.2971,13.7224-3.674c4.7731-0.314,13.5654-3.3286,18.1815-4.8672
		c7.0653-2.3551,8.9493,5.087,15.7635,2.8262c1.3502-0.157,2.7947-0.9106,4.145-0.4711c1.9468,0.6595,2.6377,3.5798,5.2126,1.8527
		c1.6956-1.1304,2.8889-2.8889,4.7102-3.9566c2.0725,1.5387,5.9034-1.6329,6.5629-3.674c1.5073-4.6475,7.9132-6.6257,8.3529-11.4615
		c0.1882-1.8841-0.0315-3.674-0.4712-5.3697c-0.1255-0.4396-3.4226-5.0556-1.5386-5.0556c0.6594,1.9783,3.9252,5.9034,5.6836,2.7005
		c1.0676-2.0097,1.2561-8.6668,3.7996-9.2948c1.2561-0.4711,4.6475-3.0146,4.6475-0.314c-7.2537,2.4179-1.4131,5.558-4.6475,8.7924
		c-4.9299,4.9614-2.3865,12.6548-7.3793,17.0824c-0.9735,0.8478-5.9977,4.0822-5.2126,5.3696
		c0.157,0.2198,10.5509-0.2512,9.8287,2.2609c0.7849,0.4396,1.9783,2.2923,2.7632,2.2923c0.1885,0.5338,1.5388-0.7222,1.7272-0.9734
		c8.0074-11.1475,10.5823-8.133,21.667-5.3696c7.0339,1.7271,8.3842,6.3431,15.1041,2.1981
		c4.773-2.9518,7.5364-1.2561,9.2007-7.9132c0.5338-2.1667,2.6062-7.7875,1.4445-9.6716c-3.5485-5.7779-4.4904-4.2392-4.0509-11.964
		c0.4397-7.662,5.2755-8.7296,8.5099-14.1307c1.7584-2.5749,3.674-5.1184,5.0557-7.9131c1.6957-3.3914,0.314-3.4856-0.4083-5.6837
		c-3.2971,0-9.0435-1.0677-8.761-5.3697c0.157-2.9832,0.7537-3.0773,2.7319-5.0557c0.8479-0.8164,4.5532-5.1498,4.8044-5.9349h0.314
		c1.319,3.9566-6.0604,8.6354-4.5217,11.65c1.5701,3.1401,7.0653,0.314,9.1692,3.8938c2.7319,4.6788-1.6328,11.0847-4.8044,14.2249
		c-1.6014,1.6015-2.5435,2.4179-3.8938,4.145c-1.2246,1.5701,0.6594,3.517,0.6594,5.7151
		c-0.5023,3.7368-6.186,6.5629-0.5652,10.4881c3.5483,2.4807,4.1136,16.2031,6.563,21.1332
		c4.2078,8.4784,12.2151,0.2512,15.104,3.831c6.3433,7.8818-2.512,13.0002,14.2878,6.5315
		c12.906-4.9929,9.1063,9.389,9.1063,15.1983l4.302,1.1305c1.8842,0.5024,0.1256,2.4807,1.7272,3.1715
		c0.8792,0.4083,3.9565-1.2246,5.4324-1.2246c5.5581,0,1.7585,3.0459-1.5386,3.4227c-9.5775,1.0991-17.2709-2.6377-26.2517-4.5532
		c-8.761-1.8841-11.0847,0-19.469,0c-9.546,0-22.0437-5.558-31.5271-7.819c-7.7561-1.8213-17.051-0.471-25.0269-0.471
		c-2.8577,0.2826-4.1136-2.7005-6.72-2.7005c0,2.0724,10.8962,10.9277,13.063,13.0944c3.6112,3.6112,4.3962,6.5944,8.3843,2.2924
		c8.4783-9.2321,24.6187,6.1861,33.8507,5.6837c3.3286-0.157,6.5001-2.6063,8.8552,1.0676
		c14.382,22.4835-25.5922,16.0462-32.5634,22.2009c-8.1329,7.1909,6.5315,14.5389,13.1573,8.8866
		c10.6138-9.1064,6.0605,3.0774,13.8167,3.0774c2.8889-0.1884,10.2056-0.8478,11.2732,2.1981
		c3.3286,9.5775,11.7126,7.5364,18.7466,10.4253c0.9106,0.3455,4.6161,7.819,5.7151,9.7345
		c3.3914,6.0919,17.4907,7.3793,24.5874,10.5195c2.8889,1.2561,9.9857,5.3069,12.906,3.7996
		c3.8938-1.9783,5.3696-6.2489,10.7393-6.2489c4.3335-1.5387,5.3698-0.3455,9.4205-0.3455c3.4227,0,4.8358-2.6377,7.9446-3.3286
		c4.0822-0.8792,9.6716,0.4083,14.382,0.4083c3.6111,0,21.667,2.1667,22.6719-0.8165c0.6594-2.0097,0.5337-8.5726,3.7996-8.8552
		c0.4396-0.0314,6.8141,6.3745,7.0024,7.0654c3.4229,0.8792,5.5266-1.5073,9.0122-3.4856
		c3.0774-3.0773,2.5436-6.9711,3.6426-10.2369c1.3503,0,2.0411,7.1595,2.1981,8.1958c0.4711,2.8889-3.9565,6.5315-3.2343,8.3842
		c1.5386,4.0194,8.384-9.4832,12.3407-3.0773c1.0363,1.6957,1.099,13.4084,3.4856,10.0799c0.8793-1.256-0.0629-7.2537,2.0411-5.1185
		c2.355,2.3552,10.0171,12.435,12.9688,12.435c5.5266,0,4.1135-2.9203,9.0437,2.0411c2.4178,2.4493,1.3502-2.6691,1.1304-3.5798
		c-2.3237-9.2949,0.6909-4.1764,6.3118-6.0291c0-1.3503-7.6934-5.4324-4.7731-7.2537c2.5121-1.5387,6.7198-0.9734,7.1281-5.2755
		c0.0629-0.4082,0.1257-2.2609,0.4082-2.3551c0-2.3865,6.5316,7.9446,6.9084,8.8552c2.4807,6.1233-4.5847,8.8866-1.7899,12.2151
		c1.6643,1.9783,8.447,4.0508,6.2489,7.6306c-1.0363,1.7271-3.7368-1.2875-4.459-1.2875c-0.4711,1.4759,0.6279,2.2924,0.5024,3.9252
		c0,1.3817,0.9734,3.7681,0.6594,4.8672c-0.4082,1.3503-2.4807,2.0097-2.4807,3.1402c3.8309,0.942,4.616,0.3768,8.29-0.6909
		c1.6328-0.471,7.2537,0,8.5411,1.1304c6.9711,6.2175-8.1329,5.1185-8.3842,10.7393c-0.377,8.7296-0.1257,6.1861-5.0557,2.575
		c-2.3237-1.7271-4.9614-0.6594-7.0968,0.6594c-6.7198,2.8575-1.5387,9.9229-10.9591,5.2126
		c-2.9517-1.4759-10.8962,6.3117-13.9109,7.6619c-10.8335,4.8044-19.0607,16.4858-29.8628,5.5895
		c-1.1932-1.1619,0.6909,6.5001,1.4445,7.5049c-8.761,2.9203-18.7781,8.2586-27.9473,13.5027
		c-5.6522,3.2343-12.2466,8.1329-17.2081,12.3408c-0.5023,0.4396-4.1763,2.575-3.9879,3.1088
		c-1.8527,1.8841,0.7537,4.145-0.785,6.3431c-0.157,0.1884-1.2875,0.785-1.3816,0.471c-0.3455,0-1.6643-1.8213-1.7272-2.0097
		c-4.0822,0-18.9979,10.3939-22.9858,13.2515c-3.2657,2.3551-19.0607,16.1089-16.9569,19.1235
		c1.1306,1.4445,5.5896,1.5701,5.5896,3.3914c-0.6909,0.1884-5.1813,3.8938-4.7731,4.5847
		c0.2826,0.5024,12.7177,3.7996,14.1935,4.145c2.1353,0.4711,7.5991,2.7947,9.5146,1.6015c4.9299-3.046,6.6257-7.3793,13.1572-8.918
		c5.3069-1.256,14.0992-1.0363,19.249,0.8793c3.3914,1.3188,7.1282,4.773,10.4568,1.7899c9.8915-8.7924,8.447,1.1619,5.0557,2.6691
		c-5.9663,2.6691-9.6089,1.1304-1.6329,6.0291c11.0533,6.8141,16.1718,23.2999,29.2347,26.5342
		c-0.1884,0.157,1.6643,1.4131,1.947,1.6957c1.9783,1.9469,14.8528-7.5049,19.249-7.0026c5.7778,0.6595,1.3188-0.942,1.3188-4.7102
		c0-1.9783,11.6499-2.8575,16.0776-2.8575c1.6956,0,7.2223,0.6909,3.1715,2.0411c-6.877,2.2923,2.3551,3.9252,0.2198,8.2272
		c-4.0823,8.2272-10.0171,0.2512-14.9471-2.1981c-5.5267-2.7633,10.0485,11.2103,10.2369,11.964
		c2.4178,7.4735,5.9034,9.8915,12.9374,11.6185c0,2.6063-4.7731,1.5387-3.4227,7.1595c2.198,9.1378,5.4639,22.2322,1.0676,31.0875
		c-2.0098,4.145-8.0388,1.5073-7.8191,9.0122l0.6595,21.9811c0.0941,2.6377,0.5652,6.1233-0.4711,8.4469
		c-1.1304,2.5122-3.1086,1.9469-3.988,5.5267c-4.9299,0-10.9277,1.5072-13.0001,6.4373c-0.7537,1.7272-1.7584-0.1256-4.2391,0.4711
		c0,3.2971,7.0338,7.4735,8.8551,10.0171c4.302,5.9348,10.9277,6.9083,19.0922,6.9083c7.4106,0,4.0193,10.7079,8.7924,13.0944
		c4.411,2.2521,6.9865,4.4661,9.8944,5.4691h7.031c0.9984-0.2706,2.0856-0.6406,3.2971-1.1356
		c4.9614-2.0725,7.4736-1.0991,12.3408,0.3767c6.5001,2.0411,7.1909-0.6594,13.3142-1.5386
		c6.6885-1.2875,18.5897-4.1764,18.5897-12.1838c0-7.4108,6.9711-4.2078,12.4349-6.4373c3.8311-1.5701,4.2078-8.1016,5.9978-7.8818
		c9.9542,1.1305,7.6934-1.8213,10.488-9.5146c1.3188-3.6426,6.877-13.0316,9.5774-15.7007
		c7.1597-18.7467,46.3801-22.6719,62.5518-26.6913c9.4519-2.3551,13.0002-2.2609,18.2756,4.3962
		c6.7828,8.5725,12.4666-15.1356,14.1936-17.3336c3.1401-0.7222,7.1909-3.7368,10.645-4.8672
		c4.8044-1.6329,3.3286-3.6426,2.5122-6.8455c-0.5967-2.4493,11.1161-2.9203,13.6597-0.9734
		c5.3068,4.0822-1.1934-4.3334,0.6279-6.1861c1.6329-1.6329,7.0026-0.8478,8.1331-3.0773c1.3502-2.7006-8.3528-6.7827-3.5798-9.2006
		c2.8262-1.4131,3.2971-2.1981,4.145-5.2755c0.5338-1.9155,5.7778-1.0677,6.2489-2.9518c0.4711,0,2.7948-5.3068,5.2755-3.0773
		c1.8213,1.6015,12.749-1.5073,17.3964-0.4082c7.2852,1.6957,15.6693,7.5991,20.5365,13.0944
		c6.406,7.1909,0.5967,9.1378,11.3047,7.819c0.3453-0.314,0.7849-0.4396,0.6279-0.7537c1.884-0.2512,3.0146-8.2272,5.9348-2.3551
		c4.5532,9.1378,10.1742-6.5629,16.6428-4.2078c1.947,0.6908,4.2393,1.2874,6.3431,1.2874c0.2198,0-2.826-9.7344-1.5387-13.2514
		c0.3455-0.9734,1.4446-1.4759,1.7899-0.2512c0.3768,1.3503,0,8.4156,0.7223,8.6982c3.925,1.5073,0.8164,6.2488,4.8044,5.1184
		c5.2126-1.4445,3.6426,3.36,10.4565-1.1932c4.6161-3.1088,17.3022-2.3551,23.6454-4.4904
		c9.4833-3.1716,4.3649-5.7465,2.3551-12.278c-2.3551-7.6306-0.785-4.0193-5.4324-4.5532
		c-3.1716-0.3768-12.8119-2.9832-2.6064-3.5798l7.0027-0.4083c3.9565-0.2198-5.9663-6.1547,0.0627-10.3311
		c2.3865-6.2175-2.5122-10.6137,5.8406-12.435c7.7249-1.6957-2.9203-18.2129,9.3577-10.0171
		c8.7925,5.8721,10.8022-0.0314,13.9736-6.3431c-4.1449-1.3817-3.5797-9.3577-7.4734-9.3577c-5.7151,0-3.0146,2.2295-9.2007-1.2247
		c-5.5581-3.1087-11.807,2.5121-17.365-3.6426c-5.2126-5.8406-6.1862-1.9155-9.5146,1.8527
		c-4.1765,4.7416-0.7852-4.2392-1.4446-4.8044c-1.0676-0.8478-7.3479,2.2295-9.3577,2.5435l-15.6693,2.2609
		c-5.4637,0.785-4.2706,5.9977-6.6571,9.86c-7.8503,5.6523-13.7224,7.6306-22.1694,0.0628
		c-7.1282-6.4059-3.8938-5.9034-3.8938-12.6862c-7.6306,0-3.5798,9.4205-9.4204,11.6186
		c-9.2634,3.517-4.459,11.8384-14.5389,14.9785c-8.3528,2.6063-13.848,10.7079-24.0536,7.3165
		c-3.2656-2.0411-8.5411-4.6788-11.0847-7.662c-2.8889-3.3914-6.1233-6.0919-9.6088-8.8238
		c-7.5364-6.5629-12.6234-17.9617-18.3699-26.2202c-1.7584-2.5436-5.9977-5.9663-6.9398-8.5726
		c-8.6353-9.9229-15.7007-21.2588-21.3843-33.003l-12.2466-29.643c-1.7585-3.2343-3.203-8.5098-4.302-12.0582
		c-1.0049-3.2971-1.7272-6.8769-2.104-10.2682c-0.2197-2.0725-1.3502-4.1764-1.4131-6.1861
		c-0.8478-2.3237-0.3767-5.4639-0.8164-7.9132c-0.4082-2.1667-0.2512-5.1812-0.2512-7.4735
		c-0.314-1.6329-1.0676-6.9083-3.7996-5.1498c-0.6908,0.4396,0.2512,5.6208,0.5338,6.6257
		c0.3455,1.3817-0.2511,7.0967-1.9783,7.0967c-2.7006,0-3.4227-3.1715-3.9567-5.4324c-1.7271,0-4.2705,2.0725-6.4373,1.3503
		c-0.4396-0.157-4.2391-1.0049-4.3647-0.8793c-2.4493,2.1667,4.1135,2.7319,4.7102,4.8044c0.785,2.7947-2.6377,4.93,1.4445,5.7465
		c2.3866,1.2247,2.3551,6.7199,5.0557,6.7199c0.4711-1.9155-0.1256-5.3696,1.0048-6.9711c2.7948-3.8938,5.4954,5.1185,5.8721,6.7199
		c0.4082,1.5073,0.7223,3.5798,1.5701,4.9301c0.6282,1.0363,1.5388,0.5338,2.1667,1.256c0.6909,0.7222,1.0991,4.7416,1.5073,5.9663
		c0.7222,2.1981-0.2827,2.0411-1.1305,0c-0.5023-1.1619-2.0411-1.7585-1.4445-0.1884c0.3768,1.0048,2.0725,4.4904,1.4758,5.4324
		c-1.3816,2.2923-1.3502,2.7006-0.7849,5.3383l-1.3503,6.5315c-0.157,0.8165-3.4541,11.1476,1.3503,7.5678
		c2.198-1.6329,3.5797-7.3166,6.5629-7.3166c2.6377,0,5.715,10.3939,6.2489,12.6234c1.099,4.3962,3.7996,8.3842,5.4324,12.7176
		c1.0049,1.8527,1.8528,3.988,2.4807,5.9349c0.4711,1.4445,3.6426,3.8938,4.7731,5.5895
		c5.1813,7.819,9.0436,15.7007,15.8578,22.5149l11.4614,15.6379l5.2755,9.1693c1.8213,3.1401,6.4059,5.9977,7.8817,8.9494
		l7.0654,6.6571c0.8792,0.8165,1.3816,2.3865,2.6063,2.7947c1.9469,0.6594,9.0436,7.2852,6.4374,8.2586
		c-4.4591,1.6957-8.0074,1.8213-11.9326,4.7416c-1.5701-1.1932-1.0676-4.459-2.5436-5.9662
		c-2.4807-2.4807-5.4325-4.7102-8.7924-5.9035c-1.6957-0.5966-3.203-0.6594-4.7102-1.8527
		c-1.2561-1.0363-3.3286-3.2972-4.7731-3.7996c-2.9203,0.2826-6.7198,1.0362-9.5775,0.3768
		c-3.2656-0.7536-6.1545-5.0556-9.2006-6.4059c-0.5653-0.2198-0.9735,2.2923-2.8262,2.2609l-6.1233-0.0942
		c-1.2875,0-3.7367-0.4396-4.5219-1.5073c-0.5337-0.7222-1.8213-3.7682-0.6908-4.2706c2.2924-1.0049,4.2391,0.6908,5.6522-2.5121
		c0.7852-1.8213,0.7223-3.517,1.1619-5.3383c1.9155-0.471,2.2924,7.348,3.6741,7.6934c0.0627,0.3454,0.6594,0.0628,0.5652-0.4082
		l-0.9734-3.988c-0.3455-1.3817-1.7585-3.2972-1.3188-4.6788c0.4082-1.1932,2.6377-3.046,3.9565-3.046
		c2.6063-2.6377,6.4059-1.2875,6.4059-6.2803c-3.6112-1.1933-4.7731-17.3336-7.8817-17.3336
		c-0.0629-0.1884-0.6909-0.157-0.7223-0.314c-0.4082,0-0.5966-0.2512-0.9735-0.2512c-0.0627-0.2512-0.6908-2.4493-0.8164-2.6063
		c0.2827-0.4082,1.1934-1.9469,1.4446-2.0411c0-2.6691-2.2296-7.6306-5.6838-7.6306c-1.8213,0-6.9711-0.4396-8.384,0.6908
		c-1.7272,1.4131,0.7222-3.046,1.5072-3.674c6.0919-5.1498-2.2295-3.2657-4.2706-3.1401c-3.7368,0.2198-1.6643,2.9203-4.9928-0.4083
		c-1.1932-1.1932,2.2924-3.6111-1.9155-6.7199c-1.9469-1.4445,1.9784-3.831,1.1305-4.9301
		c-1.9155-2.4807-13.4399,3.7682-15.6379,4.8672c-1.4446,0.7222-2.7006-0.157-4.1765,0.0942
		c-1.2874,0.2512-2.5435,1.6642-3.7996,1.5701c-3.4541-0.2512,0.157-5.7779,1.1619-6.5629
		c2.4495-2.4493,5.1184,1.5387,5.1184-3.5483c0-2.1353,4.7417-2.889,4.7417-6.0919c0-2.1667-2.1353-1.256-2.9832-1.5073
		c-1.2246-0.314,2.3865-5.0557-1.6643-3.988c-1.884,0.5024-10.3938,4.5846-10.2996,3.7368
		c0.2512-1.8527,0.9419-2.7633,0.5337-4.8358c-0.9734-5.0242,8.1958-11.0847,11.022-8.447
		c1.2246,1.1305,2.2295,1.6015,2.0725-0.5024c-0.4709-5.8093-1.6643-3.2029-4.9929-1.8212
		c-4.1135,1.6957-9.3889,2.1353-12.7175,5.6837c-3.6426,3.8938-8.5725,6.8769-11.6499,11.1475
		c-0.5967,0.8478-4.7102,2.8575-5.1184,1.6329c-1.2247,0.9106,0.7222-5.3383,1.0048-5.9663
		c1.8527-1.8527,3.3285-2.4493,5.1498-3.9252c0.8479-0.6594,0.6909-4.0508,0.9735-5.2755c0.942-3.8624,5.5895,0.2512,8.2587-3.7368
		c0.8792-1.3503,1.9783-7.5992,0.1255-3.5798c-0.2197,0.471-0.7222,1.7585-1.0676,2.0725
		c-1.3502,1.2246,0.0315-2.9518,0.2198-3.3914c1.0048-2.2924,0.9106-1.6643,2.7948-1.1933c1.099-3.4542,2.8574-4.5218-1.79-7.2852
		l-8.761-5.2126c-0.8792-0.5024,0.9735,1.7271,0.4082,2.6691c-0.6594,1.0363-1.3502,0.0628-0.6594,1.9783
		c0.7537,2.1039,3.4856,5.3068,3.4856,7.3165c0,1.6957-2.6377,2.6063-3.6426,1.3817c-2.1667-2.6691-2.6377-1.4758-3.2657,0.9421
		c-0.5338,2.0097-1.6014,5.6837-3.6425,6.4059c-3.2972,1.1932-2.8262-1.3817-3.3286-4.1136
		c0.1884-1.4759,2.2295-4.8672,0.5338-5.9349c-1.2875-0.785-4.0509-3.2344-5.2126-3.517c-0.3141,0.942-1.1619,1.7585-1.7584,2.7005
		c-0.8794,1.4445,0.3767,2.6063,0.3767,3.9566c0,0.785-1.4131,0.4396-1.9783,0.8165c-1.5701,0.9734-1.5073-0.7223-3.0459,0.1255
		c-3.203,1.7585-1.6016,1.0991-0.9735-1.3188c0.1256-0.5338-0.2826-2.1039,0.5653-1.2875c0.7222,0.7223,1.4131,0.7537,1.8525-0.2826
		c0.5653-1.3188,0.6909,0.2826,1.9155-0.5652c0.6594-0.471,0.1257-2.1981,0.5339-3.0145c0.4082-0.8164,2.4178-1.1304,1.1304-2.4179
		l-1.5701-1.5701c-0.6908-0.6909-1.2561-1.256-1.884-1.9469c-1.3817-1.5387-2.0098-3.2972-2.3865-5.244
		c-0.3455-1.7585-1.5073-2.3865-2.5122-3.7054c-1.0676-0.8793-0.785-3.2657-2.6377-2.7319
		c-1.0049,0.2826-2.7634,0.8164-2.4493,2.0411c0.3768,1.5073,0.5338,8.2586-2.3551,4.9929
		c-1.4758-1.6957-3.4541,0.628-4.8672-1.9469c-0.9421-1.6957-0.0315-7.2224-0.3455-6.877c-1.884,2.1039-2.7947,5.8407-5.3069,7.7562
		c-0.2197-0.628-1.2246-2.0096-1.2246-2.6377c0-1.1619,0.785-2.1981-0.0315-3.3286c-1.256-1.7585-5.5894-2.1981-7.3479-3.4228
		c-2.8262-1.9783-1.7585,1.0991-3.4856,0.5652c-0.9734-0.2826-1.4131-1.4445-1.9468-2.2609
		c-1.2561-1.9155-5.2441,1.3188-1.1619,0.8793c0.5966-0.0628,3.8309,4.93,4.3647,5.9349c1.8528,3.674,2.9204-0.157,3.4856,0.4082
		c0.8164,0.8165,0.6908,2.4179,1.2246,3.36c1.4131,2.5749,1.3817,3.9252,2.104,6.8455c0.9734,3.8624-2.8262,3.674-5.1185,4.4904
		c-2.826,1.0048-4.0508-2.8262-6.5315-4.0822c-3.36-1.6643,1.0363-3.7054,1.5387-3.2029c0.6908,0.6908,1.5073,4.1136,3.1715,1.4131
		c1.0049-1.6015,3.3914-2.2296,4.0508-3.988c0.785-1.9469-4.8043,1.9469-3.6425-1.256c0.6279-1.6957-0.9106-4.0508-2.7319-4.0508
		c-1.1306,0-1.0991-0.9734-1.947-1.9155c-1.884-0.942-4.459-1.4758-4.459-3.674c0-5.087-2.8262-0.785-3.6111-3.0773
		c-0.7852-2.2609-0.1571-2.7947-2.7007-3.3914c-0.6907-0.157-1.1304-0.9734-1.8212-1.4131
		c-2.1039-1.3188-6.4688-0.2198-8.6354,0.4082c-0.4711,0.1884-2.9204,1.8527-3.0774,2.2296
		c-0.4082,0.8164,0.8792,0.942,1.3188,1.2246c1.4445,0.8793,1.2246,5.7465,0.785,7.1282c-0.7223,0-1.4131-4.459-1.8842-5.2126
		c-1.3188-2.1353-3.4226,2.1981-3.7367,3.2029c-0.2198,0.785-0.0314,4.2078-1.0363,3.8624
		c-2.9832-0.9734-1.6016-3.5483-0.3768-2.6377c0.0629-0.0314,0.0314-0.0314,0.1256-0.0314l0.0314-0.0314
		c0-0.0942-0.0314-0.0628,0.0314-0.0942c0-0.8478-1.1931-5.2755-1.6643-5.9662c-2.041-3.2029-2.4178-4.4904-6.7198-5.3383
		c-5.0555-2.575,1.2561-1.7585,1.2561-4.2392c0-3.0773,3.9565-3.1401,0.7223-6.9083c-0.4712-0.5652-2.0098-4.2392-2.1982-1.2247
		c-0.1255,2.7005-2.0725-3.3914-2.575-3.1401c-1.6642,0.8478-1.0048,2.3237-1.1617,3.7054
		c-0.3768,3.988,3.6112,1.6642,0.4082,7.1595c-1.5701,2.7319-2.3866,0.5967-3.6112,0c-1.8527-0.9106-0.0314-3.2657-3.7053-1.9468
		c-1.2246,0.4396-3.4229-3.674-3.517-4.9301c-0.1884-2.6063-1.6643-0.5024-2.3237-0.9421c-0.5024-0.314-0.3453-1.6642-0.3453-2.1353
		c0-4.4904-2.9832-3.3914-5.5896-5.9977c-0.7222-0.7222-0.8164-4.0508,0-4.3334l0.6281,1.256
		c1.476,1.6957,1.5701,2.8262,3.7368,3.3286c1.6014,0.3768,2.6691,0.0627,4.0194,1.2246c0.9106,0.8165,1.6956-0.314,1.2561-1.2246
		c-0.3141-0.6281-1.0049,0.2826-1.2247-0.5967c-0.3453-1.3502-0.1884-2.7319-1.7272-1.1932
		c-0.7535,0.7537-3.0459,0.5338-3.0459-0.6594c2.4807-0.6281,2.3865-1.0363,3.6741-2.9832c1.1619-1.7585,4.616,2.2609,6.8141-2.1667
		c0.9735-1.9155,2.9203,1.256,4.1449,1.9155c2.4495,1.2875,6.8456,4.4904,9.0752,1.6957c1.0676-1.3188,2.2922-0.6594,2.6377,0.5338
		c0.5337,1.9155,2.0725,0.7537,3.5797,0.9421c6.4374-1.2247,12.3407,11.0847,14.5389,16.0148
		c0.8478,1.9783,1.1931,4.9614,1.8527,1.4758c1.2875-6.6257,5.8407-6.3431,6.3431,0.1256c0.4082,5.3697,3.6738-3.2343,5.9976-0.8478
		c0.5339,0.5024,2.3866,4.9929,3.046,2.0097c0.3453-1.5386-1.8842-2.7633-2.6063-4.1764c-0.2198-0.471-0.2512-6.9711-2.3551-5.9349
		c-1.1932,0.5966-6.5316,0.5652-6.5316-1.3817c1.79-0.471,3.9253,1.3502,6.249,0.5652c2.0725-0.7222,1.7898-9.2634,5.7463-4.6474
		c2.6378,3.1088-0.1255,6.2175-1.1931,8.8239c-1.9783,4.93,9.1692,0.9734,4.6787-5.5267c-2.6377-3.7996-3.4227-7.8818-4.5217-12.278
		c-0.5024-2.1039-0.6909-1.4758-2.418-1.7585c-0.5024-0.0628-0.7537-0.8792,0-0.8792c3.4856,0,0.3768-4.6475,3.6112-4.6475
		c5.5895,0,10.4567,16.737,13.3142,20.3482c-0.1256-0.0314,0.8793,1.0048,1.1305,1.3817c0.2826,0.3768,1.8213,3.2972,2.3551,2.6377
		c0.3141-0.3454,0.6281-2.8889,1.5072-2.0096c1.9155,1.9468-2.4807,3.2343-1.2874,5.1812c0.7849,1.2875,1.2246,2.7319,1.2246,4.302
		c0,1.1932-0.157,2.2609,0.314,3.2972c0.4711,1.0991,1.4758-0.2827,1.6329-0.8478c0.5023-1.7585-0.0942-4.2078,0.7535-5.7779
		c0.4397-0.8164,2.0725-2.2609,1.8213-3.1716c-1.9154,0-1.1304-1.0048-0.7849-2.0411c0.1884-0.6281-1.4446-1.0048-1.7899-1.5701
		c-0.4711-0.785-1.6957-2.4493-1.9155-3.1401c-0.5652-1.6957,1.4131-3.2972,1.4131-4.6788c1.256-3.2344-0.9106-4.616-2.6377-7.4108
		c-0.4711-0.7536-2.0411-4.8044,0.1256-3.3599c4.7416,3.1715,4.3962,14.2249,8.1329,15.8892
		c1.4131,0.6594,2.6378-3.5798,4.8673-0.0628c1.0048,1.6329,2.6377,2.4807,4.145,3.7053c1.6956,1.3817,1.884,2.0097,3.2029,3.7682
		c0.2826,0.3768,6.4373,2.8575,6.9712,2.6378c1.6328-0.6594,5.3696-0.9421,4.1449-2.7947
		c-1.256-1.8841-1.1305-10.8649,2.1981-7.2537c1.6328,1.7899,3.6741,3.4227,5.6523,4.0822l-0.6909,7.5992
		c0.1256,1.3188,0.4082,2.1981,0.1885,3.5483c-0.0942,0.6594-1.6329,3.8938-2.1982,4.302
		c-2.6062,1.8841-0.8478-2.7947-0.8478-3.4542c-2.5121-0.8478-0.8164-4.7102-4.8986-2.9831
		c-1.5387,0.6594-2.261,0.8164-2.9832,2.4493c-0.4082,0.9734-1.3503,2.7006-1.6016,3.5484c-2.0096,0,0.8164-8.761-4.9928-6.1861
		c-2.6691,1.1618-4.2078,3.0145-6.5629,4.459c-1.7899,1.1304-0.7537,6.8141,0.4709,7.6934
		c1.4758-0.8792,0.8479-3.1716,1.1305-4.7102c0.5024-2.7006,9.546-8.9495,6.4059-3.8938c-1.3502,2.1667-4.4904,2.6691-3.0774,5.8407
		c0.7537,1.7271-0.4396,4.2392,2.1982,5.1184c0,0-3.0774,0.4083-3.8938,1.2247c-6.2803,6.2489,7.7561,4.2706,6.5629,10.2055
		c-0.157,0.8164-0.2826,6.9711,1.2875,4.9614c1.5701-1.9469,1.5073-4.2392,3.988-5.5895c1.884-1.0363,1.4758,0.9734,2.7004,1.256
		c0.5652,0.1256,5.3696-2.9203,5.9977-3.5798c3.6426-3.988,3.7368-8.5726,5.9349-12.9688
		c2.7947-5.6522-0.2827-7.7875-0.2827-13.3456c-0.3453-2.6378-1.5701-6.0919,1.8213-7.505
		c5.4639-2.2609,8.4156,3.046,12.0269,1.9783c1.4445-0.4711,3.4541-1.1305,4.7416-0.1884l2.7948,2.0411
		c0.0314,0.0942,0.1884,0.2198,0.2826,0.2198c0.3141,1.1932,2.5121,1.6014,3.2657,0.5024c1.5386-2.2295,0.2197-6.3117,1.9469-8.8866
		c1.0048-1.5073,8.6354-6.9083,10.3624-7.1282c10.0171-7.5677,17.9303,0.7537,26.0632-12.3721
		c2.3865-3.8938,2.4807-7.4108,7.2224-9.1064c1.7898-0.6594,2.3551-1.4445,3.6426-2.8575c0.6594-0.7222,2.0096-4.2078,1.7898-4.302
		c3.2972-4.3648-2.6691-11.5872-2.9203-15.952c-0.157-2.7319,9.4518,4.9614,11.7755,6.8141
		c2.3237,1.8841-1.6014,8.0388-1.7898,10.2682c-0.1256,1.7271,0.1255,6.6885,2.7633,5.6208
		c5.0243-2.0411,1.9154,6.1861,6.5944,1.5387c1.4758-1.4759,1.9155-3.7996,3.7996-4.6474c1.0361-0.4396,1.0049,0.5652,0.8164,1.3188
		c-0.3768,1.5073-1.4131,2.5121-2.041,3.8938c-0.22,0.3768-0.22,0.2198-0.22,0.4082c-0.0627,0.0314-0.0627,0.0314-0.0627,0.0942
		c-0.0314,0.0314-0.0314,0-0.0314,0.0942c-0.2512,0.0628-1.5701,3.2344-1.9155,3.7368c-1.0048,1.5387-1.6642,0.5652-2.9518,1.1305
		c-0.3767,0.157-1.7584,4.93-2.2609,5.9034c-1.6957,3.1088-2.7633,5.8407-5.1813,8.5098c-2.5435,2.7633-3.0144,6.3745-4.8986,9.6716
		c-3.1088,2.3551-8.0388,5.4953-11.9012,6.6571c-1.0361,0.314-2.826,0.314-3.6111,1.0363c-1.884,1.7271-3.1401,4.3334-6.186,3.4228
		c-1.8842-0.5966-3.4229,4.9614-4.5847,4.7416c-1.3188-0.2512-3.7368,0.3454-1.8213,1.6642
		c1.0991,0.785-1.2874,1.6643-1.2874,3.2657c1.7584,0.4083,7.3164-2.8889,9.3262-3.7996c6.1547-2.7633,11.179-3.6426,15.6693-9.2949
		l4.0194-5.0556c1.4445-1.7899,1.8527-3.674,2.9832-5.1498c0-5.1498,6.6257-9.8601,8.5413-14.6017
		c2.1038-5.1498,6.343-9.4833,8.918-14.6959c0.8479-1.0991,3.9252-5.5895,3.9252-6.7827l-0.0314-0.0628h-0.0942
		c-0.1256,0.471-1.5387,0.3768-1.8527,0.0628c-0.7537,0.314-2.1667-3.1088-2.2924-3.5798
		c-0.7537-3.1716-0.9734-5.6523-3.4856-7.9446c-1.1931-1.0991-2.0096-2.0097-2.6062-3.6111
		c-0.7852-2.2296-0.4082-4.7103-1.0364-6.5944c0.4082-2.6691-0.8478-14.1306-3.2656-14.9471
		c1.3816-1.8527,3.4541-5.6523,2.041-7.976c-1.4445-2.3237-1.3816-4.302-0.2512-6.9083c0.9421-2.1667,1.2246-4.5847,0.5652-6.9083
		c-0.2825-1.0363,0.7852-5.2126,1.6329-3.517c0.8165,1.6329-0.2512,3.517,1.1305,5.2126c2.8574,3.5797,5.5581,4.6474,4.459,9.9229
		c-0.8479,4.145-0.9106,5.1812,0.7537,9.1064c1.5701,3.7996,0.3767,9.7659,2.3551,12.6862
		c2.4807,3.7682,4.0508,3.8624,4.7102,8.8867c0.5024,3.2343,4.1449,4.1136,2.1039,8.1958c-0.942,1.9155-3.2657,2.5435-3.2657,4.9928
		c4.2706,0,7.4421-9.2948,8.3842-12.3094c2.5122-8.1644,2.1981,6.1861,3.8938,4.3334c5.2441-5.7779,14.0994-5.9035,19.1549-13.2828
		c4.4904-6.5315,12.9061-14.9157,20.568-17.8046c3.2344-2.7319,11.5872-7.9132,15.6694-9.1064
		c3.5168-1.0049,7.2852-0.6594,10.959-0.6594c3.0146,0,4.8673-2.6378,8.0388-1.0363c7.3794,3.674,20.0342-3.9566,25.027,5.0242
		c6.3745,11.5244-5.8721,19.0607-12.8431,25.8748c1.6328,2.4179,4.3962-1.5701,5.8092-2.9832
		c2.7006-2.7005,5.3069-5.3696,7.505-8.4784c2.5121-3.4542,2.5435-5.4952,2.5435-9.8287
		c4.4905-11.7755,13.5969-20.5994,25.6865-24.6501c3.3285-2.3551,19.8771-7.4108,24.6501-7.4108
		c7.2852,0,21.7297,2.1039,22.8289,11.5244c0.9106,8.133-8.5413,11.5872-8.5413,17.4279c6.1548,0,14.1306-27.6962,17.8674-32.6262
		c3.7683-4.9301,9.2949-11.8698,16.0149-12.3722c6.6885-0.5024,9.7029-6.7827,16.4856-8.604
		c5.7151-2.2295,12.2153-10.6765,18.4329-7.9132c4.8357,2.1667,6.5627,6.9083,6.5627,11.3987
		c-0.157,0.0628-2.7632,3.3286-2.7632,3.8938l0.0942,0.0942c2.198,0,19.9712-24.9956,21.7612-28.387
		c6.5627-12.4036,12.9688-14.4133,25.592-14.4133c0.157,0.5024,1.1306,0.628,1.1306,1.5701l0.5024,0.471
		c4.4275,0,16.7998-0.3454,20.3794-3.1716c3.9565-0.8792,15.2925-5.0242,17.3022,1.0677h0.2197
		c0.063,0.1256,0.1885,0.0628,0.3455,0.0628c0.9421-2.889,4.0508-0.5339,6.406-0.7222c4.3962-0.3455,6.4688-6.4373,11.0532-2.3552
		c3.1716,2.7947,5.6836,4.302,5.6836,8.7924c-0.1255,0.0314-0.094,0-0.094,0.157c-0.1257,0.0314-0.0627,0-0.0627,0.157
		c-0.5024,0.157-2.0413,2.5435-2.0413,3.2657c-0.1255,0.0314-0.0942,0-0.0942,0.157c0.1257,0.0314,0.0942,0,0.0942,0.157
		c2.9204,0.9734,10.1741-10.4567,15.6694-15.0099l0.157-18.1815c0.0627-6.9711,2.7632-1.8841,5.4639-4.8044
		c1.884-2.0411,0.2512-3.0773,3.6426-4.145c4.145-1.2874,3.1086-1.6014,2.7632-5.6208c-0.1255-1.4131,0.9421-3.2657,1.4761-4.616
		h-15.6067v-3.831l3.1716-3.674v-2.3551l0.8164-3.0145h4.7729v-3.3914h2.0413v-17.0197h-2.3552v-13.0944h3.3286v-5.6208h5.7778
		v-8.29l13.7852-0.0628v-5.6208l22.9233-0.2512v-4.8672h4.6472v-5.1185l3.3914-0.9106c5.4011-2.2923,6.7515,8.8552,10.394,2.9203
		c1.8213-2.9832,0.8477-9.1692,2.2607-12.8432c1.7271-4.4904-0.2197-3.6426-0.2197-7.4736c0-9.075,1.4443-3.0459,5.7466-5.6208
		c2.2295-1.3188-0.5654-4.5846,0.0942-6.6885c1.2559-4.1136,2.5747-2.0411,5.2754-3.3914c5.1184-2.6063,14.5703,1.3503,21.29-0.2512
		c8.0073-1.9155,4.4277,3.2971,10.2056,4.8044c3.7053,0.9421,11.4929-0.1884,14.7273-1.0676
		c3.3914-0.9421,2.3237-3.4856,7.6306-3.4856c3.5483,0,7.0654,0.7223,10.5508,0.157c9.6089,1.1932,3.7368,3.2029,9.2634,7.3165
		c0.1885-0.5966,1.8528-1.4445,2.3552-3.2657c0.6279-2.3237,1.4131-0.8165,3.2344-1.5387c1.7898-0.6908,5.4009,4.4904,8.29,5.4639
		c5.9033,1.9783,16.0146-4.3962,22.9858-1.2247c4.5845,2.0725,10.1426,0.5339,9.4204-5.6837
		c-0.5652-5.087,2.7947,0.5966,3.2344-4.2392c0-6.0605-1.4758-8.6668,2.4492-12.6234c1.9155-1.9155-1.2559-10.4253-1.0676-10.8021
		c-0.4709-0.4711-3.9565-6.1547-3.9565-6.4373c0.0942-0.0314,0.1257-0.0628,0.157-0.157c3.9253,0,8.7295-0.2198,12.2466-1.3817
		c0-0.1884-0.0313-0.2512,0.0942-0.4082c-6.1233-8.0702-3.2344-3.4228-0.5652-10.0171c1.7271-4.2706,2.7004-6.2489,5.0242-10.2369
		c1.3816-2.3551,0.8794-5.0557,1.6328-7.3165c2.9519,0,2.4807,0.0314,3.0146-3.1716c0-2.3865,1.4758-3.8624,1.8525-5.0557
		c7.6306,3.7996,8.2273-3.3914,7.6306-8.5412c-1.0676-9.389-3.7053-10.3939-9.1692-4.3962
		c-5.7778,6.3431-2.1353-0.1884-7.3794-1.9469c-2.4807-0.8165-5.8721-0.2512-5.2126-4.3962
		c0.7224-4.4904,12.592-1.1619,12.592-7.0654c0-1.0676-3.2344-9.3262-3.7368-9.7659c-4.1763-3.674,0-7.0025-5.7778-10.4253
		c-6.0918-3.6111-0.8792-9.0122-0.9734-12.3408c0-1.3788-0.0981-2.6105-0.2781-3.7211H-775.7258L-778.2151,318.3471z
		 M797.0719,802.0242l1.6957,3.4856c0,1.6329,1.9469,3.7368,2.3551,5.3068c0.1256,0.5024,0.5338,3.7996-0.7223,3.3286
		c-0.7535-0.2826-1.3816-0.8164-1.4758-1.6957c-0.1255-1.3188-0.314-2.4807-1.0361-3.5798
		c-1.0364-1.5386-2.889-2.9517-3.4229-4.5532C793.5236,801.4904,794.6541,798.57,797.0719,802.0242z M783.2552,792.7607
		c1.3188-0.5966,2.4807,0.8793,3.4227,1.5387l1.6958,0.7222c2.512,1.9155-1.7585,2.6691-2.3552,3.2657
		c-1.4131,1.4131,0.1256,4.616-1.4758,6.0291c-1.2875,1.1304-2.1667-1.5701-2.1667-2.5435c0-2.1981,0.5339-4.4276,0-6.5944
		C782.219,794.582,782.5645,793.0748,783.2552,792.7607z M772.6101,786.4177c1.6016,1.4758,1.8842,3.1401,2.7006,4.8672
		l1.2875,4.302c0.3768,1.5386,1.9783,3.4855,0.9734,5.0556c-1.0676,1.6329-1.6643,1.2247-3.1715,1.2247
		c-0.1884-0.8165-1.2247-1.0363-1.2247-2.3551c0-1.1305,0.1885-2.1981,0.1885-3.3286c0-3.4542-1.8527-6.0291-3.2657-9.0436
		C769.0304,784.9104,771.5425,785.4128,772.6101,786.4177z M766.9265,789.024c0.0627,0.157,0.5652,0.4396,0.7222,0.628
		c0.2827,0.3455,0.5652,0.6909,0.8164,1.0677c0.4397,0.628,0.7537,1.0048,0.9735,1.6957l1.0676,3.517
		c0,2.7947-2.0724,2.2923-2.9203,0.2512c-0.6281-1.5701-1.7899-2.7634-1.7899-4.5847
		C765.796,790.751,765.953,789.024,766.9265,789.024z M763.3467,810.4084c0.8793-1.4131,2.3865,1.4759,2.7634,2.1039l1.4758,2.0411
		c0.8479,0.2198,0.3455,2.6377-0.4082,3.0145c-1.0991,0.5652-1.6958-0.5652-2.3552-1.3188
		C764.0061,815.3698,762.6873,811.476,763.3467,810.4084z"/>
</g>
</svg>
